# xmcd CD database file
#
# Track frame offsets:
#        150
#        11332
#        62667
#        70100
#        97972
#        103037
#        152977
#        166947
#        235455
#        279737
#
# Disc length: 4322 seconds
#
# Revision: 0
# Processed by: cddbd v1.5.2PL0 Copyright (c) Steve Scherf et al.
# Submitted via: CUERipper 2.1.2a
#
DISCID=7f10e00a
DTITLE=Grateful Dead - Dick's Picks, Vol. 12: Providence Civic Center, 6/26/74 and Boston Garden, 6/28/74 [CD1]
DYEAR=1998
DGENRE=
TTITLE0=Jam
TTITLE1=China Cat Sunflower
TTITLE2=Mind Left Body Jam
TTITLE3=I Know You Rider
TTITLE4=Beer Barrel Polka
TTITLE5=Truckin'
TTITLE6=Other One Jam
TTITLE7=Spanish Jam
TTITLE8=Wharf Rat
TTITLE9=Sugar Magnolia
EXTD=
EXTT0=
EXTT1=
EXTT2=
EXTT3=
EXTT4=
EXTT5=
EXTT6=
EXTT7=
EXTT8=
EXTT9=
PLAYORDER=
